/* XPM */
static char * Egg_item2_xpm[] = {
"32 32 177 2",
"  	c #C0D470",
". 	c #C4D67C",
"+ 	c #CBDB92",
"@ 	c #CFDE9D",
"# 	c #D0DE9D",
"$ 	c #CBDB91",
"% 	c #DEE6BD",
"& 	c #E7ECD1",
"* 	c #E8EDD1",
"= 	c #A4C263",
"- 	c #C3D67B",
"; 	c #D5DDAB",
"> 	c #DEDCC2",
", 	c #E2DBCD",
"' 	c #C8D4A7",
") 	c #DEDDC2",
"! 	c #CCBBA7",
"~ 	c #C1A692",
"{ 	c #C1A591",
"] 	c #CBBAA6",
"^ 	c #D5DEAC",
"/ 	c #DACFBD",
"( 	c #CAB599",
"_ 	c #C1A47F",
": 	c #C0A47E",
"< 	c #C1A47E",
"[ 	c #C0A47D",
"} 	c #CCDB92",
"| 	c #C4D67B",
"1 	c #DACDA4",
"2 	c #E2DAAB",
"3 	c #E3DAAB",
"4 	c #DACEBC",
"5 	c #CFBD93",
"6 	c #E7E1B1",
"7 	c #F3F1C0",
"8 	c #F3F0C1",
"9 	c #F3F0C4",
"0 	c #F3F2C9",
"a 	c #F3F3C9",
"b 	c #F3F2C3",
"c 	c #C9B499",
"d 	c #D6CCBD",
"e 	c #DADBC3",
"f 	c #D4DDAC",
"g 	c #F0EDBC",
"h 	c #F4F0C1",
"i 	c #F4ECC2",
"j 	c #F4ECCA",
"k 	c #F4F1D7",
"l 	c #F4F4D7",
"m 	c #F4F3C9",
"n 	c #D6CBA5",
"o 	c #C0AE9A",
"p 	c #C2B5A8",
"q 	c #DADBC2",
"r 	c #F3EFC8",
"s 	c #F3E9C4",
"t 	c #F3E8CA",
"u 	c #F3EDD7",
"v 	c #F3F1D7",
"w 	c #F4F3C1",
"x 	c #F3F2C0",
"y 	c #E3DCB0",
"z 	c #C2AD8E",
"A 	c #BCA494",
"B 	c #D2C8BC",
"C 	c #DBDBC3",
"D 	c #F3F4D7",
"E 	c #F3F0D7",
"F 	c #F3E9CA",
"G 	c #F3E6C5",
"H 	c #F3EBCA",
"I 	c #F3F3C1",
"J 	c #F3F3C0",
"K 	c #ECE6B7",
"L 	c #DDCAA2",
"M 	c #CCB194",
"N 	c #BBA394",
"O 	c #CFDE9C",
"P 	c #E3DCCE",
"Q 	c #C0A37E",
"R 	c #E2D9AB",
"S 	c #F3F3D3",
"T 	c #F3F4E0",
"U 	c #F3F1E1",
"V 	c #F3ECD4",
"W 	c #F3EBC1",
"X 	c #F3F0C0",
"Y 	c #F1EABA",
"Z 	c #EBD9AD",
"` 	c #D4B995",
" .	c #AC8875",
"..	c #B19C94",
"+.	c #DEDACF",
"@.	c #D0DE9C",
"#.	c #F3F4E5",
"$.	c #F3F3E5",
"%.	c #F3EFC0",
"&.	c #EBD9AE",
"*.	c #D5B996",
"=.	c #AC8874",
"-.	c #B19B93",
";.	c #DED9CE",
">.	c #DFDDC2",
",.	c #F3F1C8",
"'.	c #F3F3D6",
").	c #F3F2C8",
"!.	c #DABF9A",
"~.	c #BE9F84",
"{.	c #D3C8BC",
"].	c #B7CD8A",
"^.	c #CCBCA5",
"/.	c #CAB598",
"(.	c #DACEA5",
"_.	c #E7E1B2",
":.	c #EFEDBB",
"<.	c #F3F0C3",
"[.	c #F3ECCA",
"}.	c #F0EABA",
"|.	c #E4CAA2",
"1.	c #DAC09B",
"2.	c #CCB295",
"3.	c #BBA393",
"4.	c #C2B5A6",
"5.	c #DADAC3",
"6.	c #B7CE8B",
"7.	c #E1DBCD",
"8.	c #BDA492",
"9.	c #BDA27F",
"0.	c #E1D9AB",
"a.	c #F2F0BF",
"b.	c #F1ECBB",
"c.	c #EEE3B5",
"d.	c #EAD6AB",
"e.	c #E9D0A7",
"f.	c #E8CFA6",
"g.	c #AD8A76",
"h.	c #B29C94",
"i.	c #DFD9CE",
"j.	c #B69E92",
"k.	c #B59C7F",
"l.	c #DFD8AC",
"m.	c #EDE0B2",
"n.	c #E9D1A8",
"o.	c #AC8974",
"p.	c #B19A81",
"q.	c #DED7AC",
"r.	c #F0E9BA",
"s.	c #E8CEA6",
"t.	c #E8EEAA",
"u.	c #B09980",
"v.	c #DED8AC",
"w.	c #E9D0A6",
"x.	c #E9D1A7",
"y.	c #BEAD9A",
"z.	c #D3C9A5",
"A.	c #E4DFB2",
"B.	c #EFEDBC",
"C.	c #F3F1BF",
"D.	c #F2EDBC",
"E.	c #EFE4B5",
"F.	c #EBD7AC",
"G.	c #E9CFA6",
"H.	c #BBA494",
"I.	c #D3DDAC",
"J.	c #D3CBBD",
"K.	c #BFAE9A",
"L.	c #C5B695",
"M.	c #BFA084",
"N.	c #EBF0B9",
"O.	c #DBD0A6",
"P.	c #D7C19C",
"Q.	c #D5B995",
"R.	c #B0967E",
"S.	c #AE8E78",
"T.	c #AD8975",
"                                                                ",
"                      . + @ # @ @ # @ + .                       ",
"                      $ % & * & & * & % $             =   =     ",
"          =       - + ; > , , , , , , > ' + -           =       ",
"        =         + % ) ! ~ { ~ ~ { ~ ] ) % +                   ",
"        =     - + ^ > / ( _ : < < [ < ( / > ^ } |               ",
"              + % > ! ( 1 2 3 2 2 3 2 1 ( ! > % +               ",
"          - + ^ > 4 ( 5 6 7 8 9 0 a b 6 5 c d e f } |           ",
"      =   + % > ! ( 1 6 g h i j k l m g 6 n o p q % }           ",
"    = . $ ; ) / ( 5 6 b a r s t u v 0 w x y z A B C f $ .       ",
"    = + % > ! ( 1 6 g a D E F G t H 9 I J K L M N p e % }       ",
"      O * P ~ Q R b m S T U V F s W X x x Y Z `  ...+.* @.      ",
"      # * , { [ 3 a l T #.$.U E r %.7 x x Y &.*.=.-.;.* #       ",
"  . $ ; >./ ( 5 6 ,.v U $.#.T '.).x x x x Y Z !.~.A {.C f ].. = ",
"  + % > ^./.(._.:.<.[.V U T S a b x x x x }.Z |.1.2.3.4.5.% 6.  ",
"  @ & 7.8.9.0.x w %.W H v '.0 x x x x a.b.c.d.e.f.*.g.h.;.& @.  ",
"  # * i.j.k.l.I w 7 %.<.,.).b x x x x b.m.d.n.e.f.*.o.-.;.* #   ",
"  @.& ;.h.p.q.x w x x x x x x x x x x }.Z f.f.e.f.*.g.h.;.& @.  ",
"  @.& ;.h.p.q.x w x x x x x x x x x x r.Z f.s.e.f.*.g.h.;.& @.  ",
"  @.& ;.h.p.q.x w x x x x x x x x a.b.c.d.f.f.e.f.*.g.h.;.& @.  ",
"  @.& ;.h.p.q.x w x x x x x x x x b.m.d.n.f.f.e.f.*.g.h.;.& @.  ",
"t.# * ;.-.u.v.w w x x x x x x a.b.c.d.f.f.f.f.e.w.*.o.-.;.* # t.",
"  @.& ;.h.p.q.x w x x x x x x b.m.d.x.f.f.f.f.e.f.*.g.h.;.& @.  ",
"  } % q p y.z.A.B.w w w w C.D.E.F.e.G.e.e.e.e.|.!.M H.p e % }   ",
"  . $ I.C J.K.L.A.x w x x b.m.d.x.f.f.f.f.w.f.!.M.A {.C f $ .   ",
"      N.% q p K.z.q.v.q.q.O.P.*.Q.*.*.*.*.*.*.M A p e % }       ",
"      | N.f q J.y.p.u.p.p.R.S.T.T.g.g.g.g.o.g.H.{.e f } |       ",
"        t.} % C p h.-.h.h.h.h.h.h.h.h.h.h.-.h.p C % }           ",
"        t.| } I.q ;.;.;.;.;.;.;.;.;.;.;.;.;.;.e f } |           ",
"              $ % & * & & & & & & & & & & * & % $               ",
"              . } @.# @.@.@.@.@.@.@.@.@.@.# @.} .               ",
"                                                                "};
