/* XPM */
static char * Doors_open_xpm[] = {
"32 32 100 2",
"  	c #754C60",
". 	c #654152",
"+ 	c #3D2531",
"@ 	c #664153",
"# 	c #000000",
"$ 	c #8F6863",
"% 	c #7F5C59",
"& 	c #5C3F43",
"* 	c #5C4043",
"= 	c #896162",
"- 	c #7D5561",
"; 	c #3C2531",
"> 	c #190C13",
", 	c #341F29",
"' 	c #805C5A",
") 	c #B48B69",
"! 	c #A47D63",
"~ 	c #805C59",
"{ 	c #815D59",
"] 	c #A67E67",
"^ 	c #8A6263",
"/ 	c #3B2331",
"( 	c #311C28",
"_ 	c #583847",
": 	c #A47D64",
"< 	c #C49A6C",
"[ 	c #C59B6C",
"} 	c #B38A69",
"| 	c #906963",
"1 	c #B38B69",
"2 	c #3A2230",
"3 	c #3A2330",
"4 	c #664254",
"5 	c #8B6362",
"6 	c #A98066",
"7 	c #AA8066",
"8 	c #3A2331",
"9 	c #825960",
"0 	c #956A61",
"a 	c #966B61",
"b 	c #3B2431",
"c 	c #CBA375",
"d 	c #CCA475",
"e 	c #B99370",
"f 	c #926C66",
"g 	c #7D535F",
"h 	c #895C5E",
"i 	c #895D5E",
"j 	c #B99270",
"k 	c #D6B283",
"l 	c #D7B283",
"m 	c #C39F7B",
"n 	c #96726B",
"o 	c #7D525F",
"p 	c #885B5D",
"q 	c #39212F",
"r 	c #C29E7B",
"s 	c #D0AB7F",
"t 	c #D1AC80",
"u 	c #BE9978",
"v 	c #946F69",
"w 	c #BD9978",
"x 	c #B98E69",
"y 	c #BA8E69",
"z 	c #AA8067",
"A 	c #AA7959",
"B 	c #AB7A59",
"C 	c #9E6F5B",
"D 	c #865B5E",
"E 	c #A97858",
"F 	c #AA7858",
"G 	c #9E6F5A",
"H 	c #855A5E",
"I 	c #9D6E5A",
"J 	c #A3735A",
"K 	c #A4745A",
"L 	c #996B5C",
"M 	c #83585F",
"N 	c #97695C",
"O 	c #98695C",
"P 	c #8F625D",
"Q 	c #7F555F",
"R 	c #3B2531",
"S 	c #8A5D5E",
"T 	c #9F705B",
"U 	c #7B515F",
"V 	c #84585E",
"W 	c #84595E",
"X 	c #774E60",
"Y 	c #7A5060",
"Z 	c #95685C",
"` 	c #81575F",
" .	c #71495D",
"..	c #694357",
"+.	c #654153",
"@.	c #95675C",
"#.	c #6A4457",
"$.	c #503241",
"%.	c #3C2530",
"&.	c #1C0F16",
"      . + + .     @ + # # # # # # # # # # # # # # # # + @       ",
"$ $ $ % & * % = - @ ; # # # # # # # # # # # # # # > , & ' $ $ $ ",
") ) ) ! ~ { ! ] ^ @ / # # # # # # # # # # # # # # ( _ ~ : ) ) ) ",
"< [ < } $ | 1 ) | @ 2 # # # # # # # # # # # # # # 2 @ $ } < [ < ",
"[ [ [ 1 $ | 1 ) | @ 2 # # # # # # # # # # # # # # 3 4 $ ) [ [ [ ",
"< < < } $ 5 6 7 5 @ 8 # # # # # # # # # # # # # # 2 @ $ } < < < ",
"< [ < 1 $ 9 0 a 9 @ b # # # # # # # # # # # # # # 2 @ $ } < [ < ",
"c d c e f g h i g @ ; # # # # # # # # # # # # # # 2 @ f j c d c ",
"k l k m n o p h o @ ; # # # # # # # # # # # # # # q @ n r k l k ",
"s t s u v g p i g @ ; # # # # # # # # # # # # # # q @ v w s t s ",
"x y x z 5 g h i g @ ; # # # # # # # # # # # # # # 8 @ 5 z x y x ",
"A B A C D g h i g @ ; # # # # # # # # # # # # # # b @ D C A B A ",
"E F E G H g h i g @ ; # # # # # # # # # # # # # # b @ H I E F E ",
"J K J L M g h i g @ ; # # # # # # # # # # # # # # b @ M L J K J ",
"N O N P Q g i i g @ ; # # # # # # # # # # # # # # R @ Q P N O N ",
"N O N P Q g i i g @ ; # # # # # # # # # # # # # # R @ Q P N O N ",
"J K J L M g h i g @ ; # # # # # # # # # # # # # # b @ M L J K J ",
"A A A C H g h i g @ ; # # # # # # # # # # # # # # b @ H C A A A ",
"A B A C D g h i g @ ; # # # # # # # # # # # # # # b @ D C A B A ",
"A B A C D g h i g @ ; # # # # # # # # # # # # # # b @ D C A B A ",
"A A A C H g h i g @ ; # # # # # # # # # # # # # # b @ H C A A A ",
"J K J L M g h i g @ ; # # # # # # # # # # # # # # b @ M L J K J ",
"N O N P Q g i i g @ ; # # # # # # # # # # # # # # R @ Q P N O N ",
"N O N P Q g i i g @ ; # # # # # # # # # # # # # # R @ Q P N O N ",
"J K J L M g h i g @ ; # # # # # # # # # # # # # # b @ M L J K J ",
"A A A C H g i S g @ ; # # # # # # # # # # # # # # b @ H C A A A ",
"A B A C D g h i g @ ; # # # # # # # # # # # # # # b @ D C A B A ",
"A B A T D U V W U 4 ; # # # # # # # # # # # # # # b @ D C A B A ",
"A A A C H X Y U X @ + # # # # # # # # # # # # # # b @ H C A A A ",
"C T C Z `  ...4 +._ , # # # # # # # # # # # # # # b @ ` @.C T C ",
"H D H ` Y #.$.; %., &.# # # # # # # # # # # # # # ; @ Y ` H D H ",
"          @ + # # # # # # # # # # # # # # # # # # + @           "};
