/* XPM */
static char * Doors_Close_xpm[] = {
"32 32 121 2",
"  	c #754C60",
". 	c #8D8264",
"+ 	c #B0BD6C",
"@ 	c #C0D470",
"# 	c #8F6863",
"$ 	c #988466",
"% 	c #A8AB6A",
"& 	c #B5C36D",
"* 	c #BCCF6F",
"= 	c #B48B69",
"- 	c #AA8868",
"; 	c #998566",
"> 	c #9D9D68",
", 	c #B4C36D",
"' 	c #927F63",
") 	c #C49A6C",
"! 	c #C59B6C",
"~ 	c #B38A69",
"{ 	c #847B61",
"] 	c #B5C46D",
"^ 	c #B0BC6C",
"/ 	c #AFBC6C",
"( 	c #99AD62",
"_ 	c #8E8365",
": 	c #9D9E68",
"< 	c #8D8164",
"[ 	c #837A61",
"} 	c #887863",
"| 	c #A2A769",
"1 	c #9A8666",
"2 	c #906863",
"3 	c #906963",
"4 	c #7B5E61",
"5 	c #877663",
"6 	c #AB8868",
"7 	c #CBA375",
"8 	c #CCA475",
"9 	c #B99370",
"0 	c #926C66",
"a 	c #7C5461",
"b 	c #886162",
"c 	c #9C7465",
"d 	c #AF8667",
"e 	c #B88E68",
"f 	c #B98E68",
"g 	c #D6B283",
"h 	c #D7B283",
"i 	c #C29F7B",
"j 	c #96726B",
"k 	c #896263",
"l 	c #A57D66",
"m 	c #AF8567",
"n 	c #A67B63",
"o 	c #A07561",
"p 	c #D0AB7F",
"q 	c #D1AC80",
"r 	c #BE9978",
"s 	c #946F69",
"t 	c #8B6362",
"u 	c #A98066",
"v 	c #AF8466",
"w 	c #9C7060",
"x 	c #90625D",
"y 	c #8F615D",
"z 	c #B98E69",
"A 	c #BA8E69",
"B 	c #AA8067",
"C 	c #825960",
"D 	c #966B61",
"E 	c #94675E",
"F 	c #AA7959",
"G 	c #AB7A59",
"H 	c #9E6F5B",
"I 	c #865B5E",
"J 	c #7D525F",
"K 	c #895C5E",
"L 	c #92645D",
"M 	c #95675C",
"N 	c #A97858",
"O 	c #AA7858",
"P 	c #9E6F5A",
"Q 	c #855A5E",
"R 	c #96675C",
"S 	c #9F6F5B",
"T 	c #A3735A",
"U 	c #A4745A",
"V 	c #996B5C",
"W 	c #83585F",
"X 	c #98695C",
"Y 	c #97695C",
"Z 	c #8F625D",
"` 	c #7F555F",
" .	c #895D5E",
"..	c #97685C",
"+.	c #A37359",
"@.	c #A37259",
"#.	c #96675B",
"$.	c #8F615C",
"%.	c #9E7364",
"&.	c #B38B6F",
"*.	c #BA9475",
"=.	c #B28F76",
"-.	c #A78271",
";.	c #986E64",
">.	c #7C525F",
",.	c #8F605C",
"'.	c #A88270",
").	c #CAAC8B",
"!.	c #D9BD97",
"~.	c #D7BC98",
"{.	c #C7A98B",
"].	c #A68170",
"^.	c #7C515E",
"/.	c #9E705B",
"(.	c #9F705B",
"_.	c #81575F",
":.	c #7B515F",
"<.	c #84585E",
"[.	c #8A5D5E",
"}.	c #7A5060",
"|.	c #774E60",
"      . + @ @ @ @ @ @ @ @ @ @ @ @ @ @ @ @ @ @ @ @ @ @ + .       ",
"# # # $ % & * @ @ @ @ @ @ @ @ @ @ @ @ @ @ @ @ @ @ * & % $ # # # ",
"= = = - ; > , @ @ @ @ @ @ @ @ @ @ @ @ @ @ @ @ @ @ , > ' - = = = ",
") ! ) ~ # { + * ] ^ / ^ ^ ^ ^ ^ ^ ^ ( ^ ( / ^ ] * + _ # ~ ) ! ) ",
"! ! ! = # . / & : . < . . . . . . . . [ . < . : & / . # = ! ! ! ",
") ) ) ~ # } | % 1 2 3 2 2 2 2 2 2 2 2 2 2 3 2 1 % | } # ~ ) ) ) ",
") ! ) = # 4 5 $ 6 ~ = ~ ~ ~ ~ ~ ~ ~ ~ ~ ~ = ~ 6 $ 5 4 # = ) ! ) ",
"7 8 7 9 0 a b c d e f e e e e e e e e e e f e d c b a 0 9 7 8 7 ",
"g h g i j k l m n o o o o o o o o o o o o o o n m l k j i g h g ",
"p q p r s t u v w x y x x x x x x x x x x y x w v u t s r p q p ",
"z A z B t C D w E y y y y y y y y y y y y y y E w D C t B z A z ",
"F G F H I J K x x L M M L x x x x x x L M M L x x K J I H F G F ",
"N O N P Q J K y x R S S R x x x x x x R S S R x y K J Q P N O N ",
"T U T V W J K x x X U U X x x x x x x X U U X x x K J W V T U T ",
"Y X Y Z ` J  .x x X U U X x x x x x x X U U X x x  .J ` Z Y X Y ",
"Y X Y Z ` J  .x x X U U X x x x x x x X U U X x x  .J ` Z Y X Y ",
"T U T V W J K x x X U U X x x x x x x X U U X x x K J W V T U T ",
"F F F H Q J K x x X U U X x x x x x x ..+.@.#.$.y K J Q H F F F ",
"F G F H I J K x x X U U X x x x x x x X U U X x x K J I H F G F ",
"F G F H I J K x x X U U X x x x x y x %.&.*.=.-.;.K >.I H F G F ",
"F F F H Q J K x x X U U X x x x x ,.x '.).!.~.{.].K ^.Q H F F F ",
"T U T V W J K x x X U U X x x x x ,.x '.).!.~.{.].K ^.W V T U T ",
"Y X Y Z ` J  .x x X U U X x x x x y x %.&.*.=.-.;. .>.` Z Y X Y ",
"Y X Y Z ` J  .x x X U U X x x x x x x X U U X x x  .J ` Z Y X Y ",
"T U T V W J K x x X U U X x x x x x x ..+.@.#.$.y K J W V T U T ",
"F F F H Q J K x x X U U X x x x x x x X U U X x x K J Q H F F F ",
"F G F H I J K x x X U U X x x x x x x X U U X x x K J I H F G F ",
"F G F /.I J  .x x R S S R x x x x x x R S S R x x  .J I /.F G F ",
"F F F H Q J K x x L M M L x x x x x x L M M L x x K J Q H F F F ",
"H (.H M _.:.<.[.[.[.[.[.[.[.[.[.[.[.[.[.[.[.[.[.[.<.:._.M H (.H ",
"Q I Q _.}.|.:.J J J >.>.J J J J J J J J >.>.J J J :.|.}._.Q I Q ",
"                                                                "};
