/* XPM */
static char * wall_xpm[] = {
"32 32 142 2",
"  	c #C49A6C",
". 	c #C0966A",
"+ 	c #BA8E65",
"@ 	c #B68962",
"# 	c #B88E68",
"$ 	c #A07461",
"% 	c #BE9267",
"& 	c #B1835F",
"* 	c #AA7959",
"= 	c #C1966A",
"- 	c #BE9368",
"; 	c #B98D64",
"> 	c #B78B66",
", 	c #A37760",
"' 	c #A47760",
") 	c #B58A66",
"! 	c #9F7361",
"~ 	c #BB8F66",
"{ 	c #B1825E",
"] 	c #B98C64",
"^ 	c #B78A63",
"/ 	c #B48762",
"( 	c #AA7B5D",
"_ 	c #B78B63",
": 	c #B08463",
"< 	c #9C705F",
"[ 	c #AE7F5C",
"} 	c #B38560",
"| 	c #B48660",
"1 	c #B58861",
"2 	c #AD7E5C",
"3 	c #AC7C5B",
"4 	c #AD8061",
"5 	c #9B6E5E",
"6 	c #B18460",
"7 	c #A97A5C",
"8 	c #A4745A",
"9 	c #AD7D5B",
"0 	c #B0815D",
"a 	c #AD7E5B",
"b 	c #AB7A5A",
"c 	c #AF8160",
"d 	c #A0725E",
"e 	c #97695C",
"f 	c #A3735A",
"g 	c #A8785C",
"h 	c #AF815E",
"i 	c #AD7C5B",
"j 	c #9A6D5E",
"k 	c #AB7D5F",
"l 	c #90625D",
"m 	c #97685C",
"n 	c #9D6E5C",
"o 	c #986A5D",
"p 	c #A6775C",
"q 	c #A1745F",
"r 	c #A2735C",
"s 	c #A5755A",
"t 	c #A87859",
"u 	c #95675C",
"v 	c #9E6F5B",
"w 	c #A8785B",
"x 	c #9A6C5E",
"y 	c #8F615D",
"z 	c #B88E69",
"A 	c #B08565",
"B 	c #9C6D5B",
"C 	c #92645D",
"D 	c #95665C",
"E 	c #B98E68",
"F 	c #A97E64",
"G 	c #A4735A",
"H 	c #A1725B",
"I 	c #9D6F5D",
"J 	c #A97859",
"K 	c #93655D",
"L 	c #986B5E",
"M 	c #A3745C",
"N 	c #BA8E66",
"O 	c #B98E67",
"P 	c #A87A60",
"Q 	c #A77A60",
"R 	c #9D6D5B",
"S 	c #A67960",
"T 	c #B58B67",
"U 	c #B08665",
"V 	c #B58B66",
"W 	c #986A5E",
"X 	c #A2755F",
"Y 	c #AD805F",
"Z 	c #9E705D",
"` 	c #A3765F",
" .	c #AF8361",
"..	c #9B6F60",
"+.	c #94675E",
"@.	c #9F7260",
"#.	c #A57960",
"$.	c #AD7F5F",
"%.	c #AE7F5D",
"&.	c #AE7E5B",
"*.	c #A77A5F",
"=.	c #A87A5F",
"-.	c #B08361",
";.	c #AE8466",
">.	c #9C6F5F",
",.	c #B38660",
"'.	c #AA7D5F",
").	c #B68862",
"!.	c #B48760",
"~.	c #B68861",
"{.	c #A87759",
"].	c #AA7C5F",
"^.	c #A57860",
"/.	c #92635D",
"(.	c #98695C",
"_.	c #9C7060",
":.	c #9C6F60",
"<.	c #9F6F5B",
"[.	c #9D7160",
"}.	c #996B5D",
"|.	c #9A6B5B",
"1.	c #A0705A",
"2.	c #AF8466",
"3.	c #A87B60",
"4.	c #B38865",
"5.	c #A97B5E",
"6.	c #A1715B",
"7.	c #BD9167",
"8.	c #B58862",
"9.	c #AB7D5E",
"0.	c #BA8F66",
"a.	c #AE8465",
"b.	c #BB9066",
"c.	c #B78B64",
"d.	c #AB7C5E",
"e.	c #B0815E",
"f.	c #AF7F5C",
"g.	c #A8795C",
"h.	c #9E6F5C",
"i.	c #996A5D",
"j.	c #96675C",
"k.	c #91635D",
"  . + @ @ + . # $ $ # . + @ @ @ @ + . # $ $ # . + @ @ + . % & * ",
"= - ; @ @ ; - > , ' > - ; @ @ @ @ ; - ) ! ! ) - ; @ @ ; - ~ { * ",
"+ ] ^ @ @ ^ ] / ( ( / ] ^ @ @ @ @ _ ] : < < : ] _ @ @ ^ ] @ [ * ",
"} } } } } | 1 } 2 3 { } } | 1 @ @ @ @ 4 5 5 4 @ @ @ @ @ @ 6 7 8 ",
"9 9 9 9 9 0 | } a b 3 9 9 0 | @ @ @ @ 4 5 5 4 @ @ @ @ @ @ c d e ",
"f f f f f g h { 9 * * * * i { } } | 1 4 5 j k } | | 1 @ @ 4 5 l ",
"m m m m m n g 3 b * * * * b 3 9 9 0 | 4 5 o p 9 a 0 | @ @ 4 5 l ",
"$ $ $ $ $ q r s t * * t s f f s t 9 { k j u v f f w h | } k x y ",
"# # # z # A q B s * * s B m m B s b i p o C D m m n g a a p o l ",
". . . = . E F q r G f H I 5 5 I H s J G m K L < ! q r f G M q $ ",
"+ + + + + N O A q m m I P 4 4 Q I R s f e L S : T A q m m q U # ",
"@ @ @ @ @ ; - V ! K W X Y } } Y X Z H H Z `  .; - O F ..+.@.V . ",
"@ @ @ @ @ _ ; : < L #.$.%.&.&.%.$.*.I I =.-./ _ ; N E ;...>.: + ",
"@ 1 | } } ,.} '.j j '.{ 9 * * 9 { '.j x '.| ).@ @ ; - ) ! 5 4 @ ",
"@ | 0 9 9 a 9 p o o p 9 b * * b 9 p o o p 0 | @ @ _ ; : < 5 4 @ ",
"} h w f f s t G e e f * * * * * * G e m f 3 { } } !.~.4 5 5 4 @ ",
"9 g n m m R s f e e f * * * * * * f e m f b i 9 9 0 | 4 5 5 4 @ ",
"f r q $ $ q r v u e 8 t s f f f f v u e 8 * * {.s p ].^.L x k } ",
"m q A z z A q u /.(.G s R e m e e u C e G * * s B o x L K o p 9 ",
"$ F O = = O F _.+.u v H I < ! $ $ :.+.D <.G G r q $ $ [.}.|.1.f ",
"# O N + + N O 2._./.D I 3.: T # # 2._.C D m e q A # # 4.5.6.|.m ",
". - ] @ @ ; - V ! K W ` -.; - = = O F _.+.+._.F O = = 7.8.9.Z e ",
"+ ; ^ @ @ _ ; : < L S  ./ _ ; + + 0.O a.:...a.O N + + b.7.c.d.f ",
"@ @ @ @ @ @ @ 4 5 j '.} } | 1 @ @ ; - ) ! ! ) - ; @ @ ; - ~ e.* ",
"@ @ @ @ @ @ @ 4 5 o p a &.0 | @ @ _ ; : < < : ; _ @ @ ^ ; @ f.* ",
"@ 1 | } } !.1 4 5 e f * * i { } } !.1 4 5 5 4 1 !.} } | 1 } a * ",
"@ | 0 9 9 0 | 4 5 e f * * b 3 9 9 0 | 4 5 5 4 | 0 9 9 0 | } 9 * ",
"} h w f f w h k j e G t s f f f f w h k j j k h w f f g h h g.8 ",
"9 g n m m h.g p i.(.f s R e m m m h.g p i.i.p g h.m m h.g g h.e ",
"8 M q $ $ q M <.j.j.<.M q $ $ $ $ q M <.j.j.<.M q $ $ q M <.j.l ",
"m q A z z A q u /./.u q A # z z # A q u /./.u q A z z A q u k.l ",
"l $ #     # $ l y y l $ #         # $ l y y l $ #     # $ l y l "};
