/* XPM */
static char * Back_xpm[] = {
"32 32 134 2",
"  	c #C0D470",
". 	c #ADBD7A",
"+ 	c #80838A",
"@ 	c #5C4E92",
"# 	c #BCCF72",
"$ 	c #B2C377",
"% 	c #A8B385",
"& 	c #9E9E98",
"* 	c #9892A0",
"= 	c #B3C377",
"- 	c #B1C377",
"; 	c #949E84",
"> 	c #9E9F97",
", 	c #C6C4AC",
"' 	c #D9D7B5",
") 	c #D9D7B6",
"! 	c #83927F",
"~ 	c #A4C263",
"{ 	c #ACBB79",
"] 	c #D8D6B5",
"^ 	c #F3F2C0",
"/ 	c #F4F3C0",
"( 	c #97919F",
"_ 	c #76768B",
": 	c #9AA57F",
"< 	c #ADBD78",
"[ 	c #6D6F8A",
"} 	c #94AC71",
"| 	c #ABBB79",
"1 	c #747988",
"2 	c #F5F4C1",
"3 	c #665D90",
"4 	c #75758C",
"5 	c #80848A",
"6 	c #7F828A",
"7 	c #747A88",
"8 	c #DEDCBB",
"9 	c #AFA9B0",
"0 	c #8D83AB",
"a 	c #8B81AA",
"b 	c #E8E6C4",
"c 	c #D3CDCA",
"d 	c #C5BDCE",
"e 	c #C5BCCD",
"f 	c #C5BDCD",
"g 	c #EFEDC6",
"h 	c #E7E3D1",
"i 	c #E3DDD7",
"j 	c #F2F0C2",
"k 	c #F0EDC7",
"l 	c #EEECC9",
"m 	c #ACBC79",
"n 	c #BCCF73",
"o 	c #B2C278",
"p 	c #9BA680",
"q 	c #77778C",
"r 	c #76758B",
"s 	c #959E84",
"t 	c #77778B",
"u 	c #665E90",
"v 	c #A1BD67",
"w 	c #645C91",
"x 	c #9E9F96",
"y 	c #C6C4AB",
"z 	c #D8D6B6",
"A 	c #DAD8B9",
"B 	c #DBD9BB",
"C 	c #98929F",
"D 	c #9B95A4",
"E 	c #A09BAC",
"F 	c #A39FB0",
"G 	c #E8EEAA",
"H 	c #A5B089",
"I 	c #96959F",
"J 	c #9088A7",
"K 	c #958EA3",
"L 	c #8F89A2",
"M 	c #7E77A7",
"N 	c #746BAA",
"O 	c #756CAA",
"P 	c #746BA9",
"Q 	c #7066A5",
"R 	c #6D63A4",
"S 	c #B2C376",
"T 	c #9695A0",
"U 	c #B6AFBF",
"V 	c #CAC4C7",
"W 	c #D3D0BC",
"X 	c #C4C1B2",
"Y 	c #9791AC",
"Z 	c #7268AA",
"` 	c #6F65A5",
" .	c #665A9D",
"..	c #615498",
"+.	c #E5DFD7",
"@.	c #EFEDCA",
"#.	c #E3E1BC",
"$.	c #BDBAB4",
"%.	c #9792AD",
"&.	c #7D74A7",
"*.	c #7A72A3",
"=.	c #8E87A1",
"-.	c #E4DED7",
";.	c #EFEDBF",
">.	c #E2E1BC",
",.	c #8F88A1",
"'.	c #C2BFAE",
").	c #D6DAA5",
"!.	c #9595A0",
"~.	c #B6AFC0",
"{.	c #D4D1BD",
"].	c #E1DFB9",
"^.	c #EDECBD",
"/.	c #DFDEB8",
"(.	c #B6B3A9",
"_.	c #B6B2A9",
":.	c #E0DEB8",
"<.	c #D6DBA6",
"[.	c #8F86A7",
"}.	c #E1DFB8",
"|.	c #F4F3C1",
"1.	c #EFECC9",
"2.	c #E9E6C4",
"3.	c #D7D5B5",
"4.	c #9AA67F",
"5.	c #E5DFD8",
"6.	c #D4CECB",
"7.	c #B0AAB0",
"8.	c #B7B0BF",
"9.	c #C6BECE",
"0.	c #B7B1BF",
"a.	c #7F8289",
"b.	c #9694A0",
"c.	c #A4AF89",
"          . + @ @ @ @ + .             . + @ @ @ @ + .           ",
"      # $ % & * * * * & % = #     # = % & * * * * & % $ #       ",
"      - ; > , ' ) ) ' , > ; -     - ; > , ' ) ) ' , > ! - ~     ",
"      { + * ] ^ / / ^ ] ( _ : < < : [ ( ] ^ / / ^ ] * + }       ",
"      | 1 * ] / 2 2 / ) * 3 4 5 5 4 3 * ) / 2 2 / ] * 6 |       ",
"      { 7 * ] ^ / / ^ 8 9 0 a 0 0 a 0 9 8 ^ / / ^ ] * + {       ",
"      { + * ] ^ / ^ ^ b c d e f f e d c b ^ ^ / ^ ] * + {       ",
"      { + * ] ^ / ^ ^ g h i i i i i i h g ^ ^ / ^ ] * + {       ",
"      } + * ] ^ / ^ ^ j k l l l l l l k j ^ ^ / ^ ] * + {       ",
"    ~ m 5 * ] ^ / ^ ^ ^ ^ ^ ^ ^ ^ ^ ^ ^ ^ ^ ^ / ^ ] * 5 m       ",
"    ~ { + * ] ^ / ^ ^ ^ ^ ^ ^ ^ ^ ^ ^ ^ ^ ^ ^ / ^ ] * + {       ",
"  n o p q * ] ^ / ^ ^ ^ ^ ^ ^ ^ ^ ^ ^ ^ ^ ^ ^ / ^ ] * q p o n   ",
"  = ; r 3 * ] ^ / ^ ^ ^ ^ ^ ^ ^ ^ ^ ^ ^ ^ ^ ^ / ^ ] * 3 r ; =   ",
"  = s t u * ] ^ / ^ ^ ^ ^ ^ ^ ^ ^ ^ ^ ^ ^ ^ ^ / ^ ] * u t ! = ~ ",
"  n o p q * ] ^ / ^ ^ ^ ^ ^ ^ ^ ^ ^ ^ ^ ^ ^ ^ / ^ ] * q p o v   ",
"  n o p q * ] ^ / ^ ^ ^ ^ ^ ^ ^ ^ ^ ^ ^ ^ ^ ^ / ^ ] * q p o n   ",
"  = s t u * ] ^ / ^ ^ ^ ^ ^ ^ ^ ^ ^ ^ ^ ^ ^ ^ / ^ ] * u t s =   ",
"  = ; 4 w * ) / 2 / / / / / / / / / / / / / / 2 / ) * w 4 ; =   ",
"  n o p q * ] ^ / ^ ^ ^ ^ ^ ^ ^ ^ ^ ^ ^ ^ ^ ^ / ^ ] * q p o n   ",
"      - s x y ] ] z A B B B B B B B B B B A z ] ] y x s -       ",
"      # = % & C * D E F F F F F F F F F F E D * C & % = #       ",
"G     # $ H I J K L M N O P Q R R Q P O N M L K J I H $ #     G ",
"      S s T U V W X Y N Z `  ..... .` Z N Y X W V U T s S       ",
"      { 6 0 d +.@.#.$.%.&.*.=.* * =.*.&.%.$.#.@.+.d 0 6 {       ",
"      { 6 0 d -.@.;.>.X L ,.'.) ) '.,.L X >.;.@.-.d 0 6 {       ",
"      ).; !.~.V {.].^./.(._.:.2 2 :._.(./.^.].{.V ~.!.; S       ",
"      # <.H I [.K (.}.^.].:.^.|.|.^.:.].^.}.(.K [.I H $ #       ",
"        G = ; 4 w K {.1.@.2.8 3.3.8 2.@.1.{.K w 4 ; =           ",
"        G # S 4.4 [.V -.5.6.7.( ( 7.6.5.-.V [.4 4.S #           ",
"              S ; I 8.9.9.0.I a.a.I 0.9.9.8.I ; S               ",
"              # = H !.0 0 b.c.m m c.b.0 0 !.H = #               ",
"                  . + @ @ + .     . + @ @ + .                   "};
