/* XPM */
static char * Front_xpm[] = {
"32 32 207 2",
"  	c #C0D470",
". 	c #ADBD7A",
"+ 	c #80838A",
"@ 	c #5C4E92",
"# 	c #BCCF72",
"$ 	c #B2C377",
"% 	c #A8B385",
"& 	c #9E9F98",
"* 	c #9893A0",
"= 	c #9892A0",
"- 	c #9E9E98",
"; 	c #B3C377",
"> 	c #B1C377",
", 	c #949E84",
"' 	c #9E9F97",
") 	c #C6C4AC",
"! 	c #D9D7B5",
"~ 	c #D9D7B6",
"{ 	c #83927F",
"] 	c #A4C263",
"^ 	c #ACBC79",
"/ 	c #968B9E",
"( 	c #D5CAB1",
"_ 	c #F0E4BB",
": 	c #F1E5BB",
"< 	c #F2E9BD",
"[ 	c #F2EEBF",
"} 	c #D8D6B5",
"| 	c #97919F",
"1 	c #76768B",
"2 	c #9AA57F",
"3 	c #ADBD78",
"4 	c #6D6F8A",
"5 	c #94AC71",
"6 	c #ABBC7A",
"7 	c #747988",
"8 	c #947D9B",
"9 	c #D1B2AA",
"0 	c #ECC8B2",
"a 	c #EDC9B2",
"b 	c #EFD6B6",
"c 	c #665D90",
"d 	c #75758C",
"e 	c #80848A",
"f 	c #7F828A",
"g 	c #ACBC7A",
"h 	c #747A88",
"i 	c #927499",
"j 	c #CEA1A5",
"k 	c #E8B3AC",
"l 	c #E9B5AC",
"m 	c #DEDCBB",
"n 	c #B0ABB0",
"o 	c #8D84AA",
"p 	c #8C82AA",
"q 	c #EBC7B1",
"r 	c #E8E6C4",
"s 	c #D3CECA",
"t 	c #C5BDCE",
"u 	c #C5BCCD",
"v 	c #C5BDCD",
"w 	c #D1B1AA",
"x 	c #EDD4B5",
"y 	c #F1E8BC",
"z 	c #EEEBC8",
"A 	c #E3DDD7",
"B 	c #DDD5DE",
"C 	c #EEEBC9",
"D 	c #E4DED7",
"E 	c #DED6DF",
"F 	c #F3F2C0",
"G 	c #F4F3C0",
"H 	c #EDEBC8",
"I 	c #DDD4DF",
"J 	c #ACBB79",
"K 	c #F3F3C0",
"L 	c #F4F4C1",
"M 	c #BCCF73",
"N 	c #B2C278",
"O 	c #9BA680",
"P 	c #77778C",
"Q 	c #F5F4C1",
"R 	c #EFEDC6",
"S 	c #E7E3D1",
"T 	c #76758B",
"U 	c #F2F0C2",
"V 	c #959E84",
"W 	c #77778B",
"X 	c #665E90",
"Y 	c #ECEBBD",
"Z 	c #E0DEB8",
"` 	c #DFDDB8",
" .	c #9993A0",
"..	c #B7B3A9",
"+.	c #B5B2A9",
"@.	c #A1BD67",
"#.	c #9994A0",
"$.	c #DFDEB8",
"%.	c #B7B4A9",
"&.	c #645C91",
"*.	c #988FA0",
"=.	c #D9D1B7",
"-.	c #F4ECC2",
";.	c #F5EDC2",
">.	c #F4EEC1",
",.	c #F4F1C1",
"'.	c #9BA780",
").	c #9889A1",
"!.	c #D8C6B8",
"~.	c #F3DFC4",
"{.	c #F5E1C4",
"].	c #F4E5C3",
"^.	c #F3EEC1",
"/.	c #9E9798",
"(.	c #C6B2AE",
"_.	c #D8BFB9",
":.	c #D8C6B9",
"<.	c #DAD3BA",
"[.	c #DBD9BB",
"}.	c #DBDABB",
"|.	c #DAD8BB",
"1.	c #DAD9BA",
"2.	c #A8B086",
"3.	c #9E9598",
"4.	c #9884A1",
"5.	c #9885A1",
"6.	c #9B8CA5",
"7.	c #A098AC",
"8.	c #A39FB0",
"9.	c #E8EEAA",
"0.	c #A5B089",
"a.	c #96959F",
"b.	c #9088A7",
"c.	c #958EA3",
"d.	c #8F89A2",
"e.	c #7E77A7",
"f.	c #736AAA",
"g.	c #8178A7",
"h.	c #968DA2",
"i.	c #A199A4",
"j.	c #A39DAC",
"k.	c #9993AF",
"l.	c #827BAC",
"m.	c #B2C376",
"n.	c #9695A0",
"o.	c #B6AFBF",
"p.	c #CAC4C7",
"q.	c #D3D0BC",
"r.	c #C4C1B2",
"s.	c #9791AC",
"t.	c #7269AA",
"u.	c #7268AA",
"v.	c #948BA1",
"w.	c #C0B791",
"x.	c #D5CF97",
"y.	c #D9D5AF",
"z.	c #C6C3B6",
"A.	c #9892AF",
"B.	c #8D83AB",
"C.	c #E5DFD7",
"D.	c #EFEDCA",
"E.	c #E3E1BC",
"F.	c #BDBAB4",
"G.	c #A29EB1",
"H.	c #A29DB0",
"I.	c #B9B3A3",
"J.	c #DAD289",
"K.	c #ECE589",
"L.	c #EFEBA3",
"M.	c #E0DCB0",
"N.	c #BCB8B1",
"O.	c #EEEDBF",
"P.	c #E2E1BC",
"Q.	c #DFDCAC",
"R.	c #E7E08D",
"S.	c #ECE37E",
"T.	c #EDE589",
"U.	c #E9E39C",
"V.	c #E0DDB1",
"W.	c #D6DAA5",
"X.	c #9595A0",
"Y.	c #B6AFC0",
"Z.	c #D4D1BD",
"`.	c #EDECBD",
" +	c #F2EFB5",
".+	c #EFEA9E",
"++	c #EDE78F",
"@+	c #D6DBA6",
"#+	c #8F86A7",
"$+	c #B6B2A9",
"%+	c #E1DFB8",
"&+	c #F3F2BC",
"*+	c #F1EEB0",
"=+	c #F1EFB5",
"-+	c #EFECC9",
";+	c #E9E6C4",
">+	c #D7D5B5",
",+	c #9AA67F",
"'+	c #D3CDCA",
")+	c #B0AAB1",
"!+	c #9791A0",
"~+	c #B7B0BF",
"{+	c #C6BECE",
"]+	c #B7B1BF",
"^+	c #7F8289",
"/+	c #9694A0",
"(+	c #A4AF89",
"          . + @ @ @ @ + .             . + @ @ @ @ + .           ",
"      # $ % & * * * = - % ; #     # ; % - = * * * & % $ #       ",
"      > , ' ) ! ~ ~ ! ) ' , >     > , ' ) ! ~ ~ ! ) ' { > ]     ",
"      ^ + / ( _ : < [ } | 1 2 3 3 2 4 | } [ < : _ ( / + 5       ",
"      6 7 8 9 0 a b < ~ * c d e e d c * ~ < b a 0 9 8 f 6       ",
"      g h i j k l 0 _ m n o p o o p o n m _ 0 l k j i + g       ",
"      g + i j k l q _ r s t u v v u t s r _ q l k j i + g       ",
"      g + 8 w q 0 x y z A B B B B B B A z y x 0 q w 8 + g       ",
"      5 + / ( _ : y [ C D E E E E E E D C [ y : _ ( / + ^       ",
"    ] ^ e = } F G F F H A B I B B I B A H F F G F } = e ^       ",
"    ] J + = } K L K F z A B B B B B B A z F K L K } = + J       ",
"  M N O P = } F Q G F R S A A A A A A S R F G Q F } = P O N M   ",
"  ; , T c = } F G F F U R z H z z H z R U F F G F } = c T , ;   ",
"  ; V W X * } Y Z ` Y F F F F F F F F F F Y ` Z Y } * X W { ; ] ",
"  M N O P  .} ` ..+.` F G F F F F F F G F ` +...` }  .P O N @.  ",
"  M N O P #.} $.%.+.` F G F F F F F F G F ` +.%.$.} #.P O N M   ",
"  ; V W X * } Y Z ` Y F F F F F F F F F F Y ` Z Y } * X W V ;   ",
"  ; , d &.*.=.-.;.>.,.G G G G G G G G G G ,.>.;.-.=.*.&.d , ;   ",
"  M N '.P ).!.~.{.].^.F F F F F F F F F F ^.].{.~.!.).P '.N M   ",
"      > V /.(._._.:.<.[.}.[.[.|.|.1.[.}.[.<.:._._.(./.V >       ",
"      # ; 2.3.4.5.6.7.8.8.8.8.8.8.8.8.8.8.7.6.5.4.3.2.; #       ",
"9.    # $ 0.a.b.c.d.e.f.f.g.h.i.j.k.l.f.f.e.d.c.b.a.0.$ #     9.",
"      m.V n.o.p.q.r.s.t.u.v.w.x.y.z.A.u.u.s.r.q.p.o.n.V m.      ",
"      J f B.t C.D.E.F.G.H.I.J.K.L.M.N.H.H.F.E.D.C.t B.f J       ",
"      J f B.t D D.O.P.[.[.Q.R.S.T.U.V.[.[.P.O.D.D t B.f J       ",
"      W., X.Y.p.Z.Z `.F K  +.+++++.+ +K F `.Z Z.p.Y.X., m.      ",
"      # @+0.a.#+c.$+%+G Q &+ +*+*+=+&+Q G %+$+c.#+a.0.$ #       ",
"        9.; , d &.c.Z.-+D.;+m >+>+m ;+D.-+Z.c.&.d , ;           ",
"        9.# m.,+d #+p.D D '+)+!+!+)+'+D D p.#+d ,+m.#           ",
"              m., a.~+{+{+]+a.^+^+a.]+{+{+~+a., m.              ",
"              # ; 0.X.B.B./+(+^ ^ (+/+B.B.X.0.; #               ",
"                  . + @ @ + .     . + @ @ + .                   "};
