/* XPM */
static char * Left_xpm[] = {
"32 32 178 2",
"  	c #C0D470",
". 	c #ADBD7A",
"+ 	c #80838A",
"@ 	c #5C4E92",
"# 	c #BCCF72",
"$ 	c #B3C377",
"% 	c #A8B385",
"& 	c #9E9E98",
"* 	c #9892A0",
"= 	c #9893A0",
"- 	c #9D9E98",
"; 	c #A6B285",
"> 	c #B1C377",
", 	c #949E84",
"' 	c #9E9F97",
") 	c #C6C4AC",
"! 	c #D9D7B5",
"~ 	c #D9D7B6",
"{ 	c #A4C263",
"] 	c #99A57F",
"^ 	c #75758C",
"/ 	c #96919F",
"( 	c #D8D6B5",
"_ 	c #F2EEBF",
": 	c #F2E9BD",
"< 	c #F1E5BB",
"[ 	c #F0E4BB",
"} 	c #DDD2B4",
"| 	c #B4ACA7",
"1 	c #B2C377",
"2 	c #645C91",
"3 	c #EFD6B6",
"4 	c #ECC8B2",
"5 	c #E7CDB3",
"6 	c #B6B3A9",
"7 	c #E0DEB8",
"8 	c #E8B3AC",
"9 	c #ACBB79",
"0 	c #E0DFB8",
"a 	c #EDEBBD",
"b 	c #EBC7B1",
"c 	c #7F828A",
"d 	c #ABBB79",
"e 	c #F3F2C0",
"f 	c #F4F3C0",
"g 	c #F1E8BC",
"h 	c #EDD4B5",
"i 	c #EED5B6",
"j 	c #F5F4C1",
"k 	c #ACBC79",
"l 	c #80848A",
"m 	c #F3F3C0",
"n 	c #F4F3C1",
"o 	c #9BA680",
"p 	c #76768C",
"q 	c #77778C",
"r 	c #B2C278",
"s 	c #BCCF73",
"t 	c #76758B",
"u 	c #665D90",
"v 	c #ADBC7A",
"w 	c #6E6395",
"x 	c #8B849C",
"y 	c #B6B2A9",
"z 	c #ECEBBD",
"A 	c #DFDDB8",
"B 	c #665E90",
"C 	c #77778B",
"D 	c #959E84",
"E 	c #8A849C",
"F 	c #C1BEAD",
"G 	c #E1DFB9",
"H 	c #EDECBE",
"I 	c #B5B2A9",
"J 	c #DFDEB8",
"K 	c #F4F1C1",
"L 	c #F4EEC1",
"M 	c #F4ECC2",
"N 	c #F3E5C3",
"O 	c #F3DFC4",
"P 	c #F3E4C3",
"Q 	c #F3EDC1",
"R 	c #9D9E97",
"S 	c #C5C4AC",
"T 	c #D8D7B7",
"U 	c #DBD9BA",
"V 	c #DBDABB",
"W 	c #DBD9BB",
"X 	c #DBD4BC",
"Y 	c #DBC9BD",
"Z 	c #DBC3BE",
"` 	c #DAD3BB",
" .	c #DAD8B9",
"..	c #D8D7B6",
"+.	c #C6C4AB",
"@.	c #A9A7A0",
"#.	c #A7B385",
"$.	c #9B95A4",
"%.	c #A09BAC",
"&.	c #A39FB0",
"*.	c #A39CB0",
"=.	c #A396B1",
"-.	c #A392B2",
";.	c #9B96A4",
">.	c #A8A6A1",
",.	c #E8EEAA",
"'.	c #B6C477",
").	c #A0A185",
"!.	c #8D8395",
"~.	c #7F76A3",
"{.	c #766DAA",
"].	c #746BAA",
"^.	c #746AAA",
"/.	c #736AAA",
"(.	c #837BAB",
"_.	c #9993AE",
":.	c #9E98AF",
"<.	c #948CAC",
"[.	c #96959F",
"}.	c #A5B089",
"|.	c #C6D273",
"1.	c #CCCB7B",
"2.	c #BDB48C",
"3.	c #948BA0",
"4.	c #7269AA",
"5.	c #9893AE",
"6.	c #C6C3B6",
"7.	c #D5D2C0",
"8.	c #CBC5C9",
"9.	c #B6AFBF",
"0.	c #9695A0",
"a.	c #B2C376",
"b.	c #CDD872",
"c.	c #E0DE76",
"d.	c #D3CA85",
"e.	c #9E959A",
"f.	c #8078A7",
"g.	c #9691AD",
"h.	c #A49FB0",
"i.	c #A29DB0",
"j.	c #BDBAB4",
"k.	c #E2E0BC",
"l.	c #EFECC9",
"m.	c #E4DED7",
"n.	c #C5BDCE",
"o.	c #8D83AB",
"p.	c #CDD972",
"q.	c #E1DE76",
"r.	c #D1C981",
"s.	c #988F91",
"t.	c #908AA2",
"u.	c #C4C1B3",
"v.	c #DCDABB",
"w.	c #E2E1BC",
"x.	c #EEEDBF",
"y.	c #EFEDC9",
"z.	c #CAD871",
"A.	c #D8DB74",
"B.	c #C7C37D",
"C.	c #8E878C",
"D.	c #D8D6B6",
"E.	c #F4F4C0",
"F.	c #E9E7C4",
"G.	c #D2CDCA",
"H.	c #B6AFC0",
"I.	c #95949F",
"J.	c #C4D670",
"K.	c #C9D772",
"L.	c #B6BE7B",
"M.	c #85858B",
"N.	c #DEDCBB",
"O.	c #AFAAB0",
"P.	c #A4AF89",
"Q.	c #A7B284",
"R.	c #A6B184",
"S.	c #BCCF71",
"T.	c #B7B0BF",
"U.	c #C6BECE",
"                          . + @ @ @ @ + .                       ",
"                      # $ % & * = = = - ; > #                   ",
"                      > , ' ) ! ~ ~ ! ) ' , >         {   {     ",
"          {       # > ] ^ / ( _ : < [ } | & ; 1 #       {       ",
"        {         $ , ^ 2 = ~ : 3 4 4 5 } ) - , >               ",
"        {     # 1 % & / * 6 7 [ 4 8 8 4 [ ( = + 9               ",
"              > , & ) ( ~ 0 a [ b 8 8 4 < ( = c d               ",
"              9 + * ( e f e e g h b b i g ( = + 9               ",
"      {       d c * ( f j f e _ g [ [ : _ ( * + 9               ",
"    {         k l * ( e f e e e e e e f e ( * l k               ",
"    {         9 + * ( e f e e e e m m n e ( * + 9               ",
"          # 1 o p / ( e j f e e e e e f e ( * q o r s           ",
"          $ , t u * ( e f e e e e e e f e ( * u t , $           ",
"          v + w x y 7 z 7 A z e e e e f e ( * B C D $     {   { ",
"          9 c E F G H A y I A e f e e f e ( * q o r s       {   ",
"          9 + * ( f f A I I J e f e e f e ( * q o r s           ",
"          9 + = ! f n z A A z e e e e f e ( * B C D $           ",
"          d c * ( f j f f K L M M L K j f ~ * 2 ^ , $           ",
"          9 + * ( e f e f L N O O P Q f e ( * q o r s           ",
"          > , R S T U V W X Y Z Z Y `  ...+.@.D >               ",
"          # 1 #.& $.%.&.&.*.=.-.-.=.*.%.;.>.#.$ #               ",
",.            '.).!.~.{.].^.^./.^.(._.:.<.[.}.1 #             ,.",
"              |.1.2.3.^.4.].].4.].5.6.7.8.9.0.D a.              ",
"              b.c.d.e.f.g.&.h.i.&.j.k.l.m.n.o.c 9               ",
"              p.q.r.s.t.u.W v.W W w.x.y.m.n.o.c 9               ",
"      ,.      z.A.B.C.* D.f E.e e f f F.G.H.I., a.              ",
"        ,.    J.K.L.M.* ( f j f f f e N.O.[.P.1 #               ",
"        ,.        > , R ) N.F.l.l.F.N.) R , >                   ",
"        ,.        # 1 Q.& O.G.m.m.G.O.R R.a.S.                  ",
"                      a., [.T.U.U.T.[., a.                      ",
"                      S.> P.I.o.o.I.P.> S.                      ",
"                          . + @ @ + .                           "};
