/* XPM */
static char * Right_xpm[] = {
"32 32 178 2",
"  	c #C0D470",
". 	c #ADBD7A",
"+ 	c #80838A",
"@ 	c #5C4E92",
"# 	c #BCCF72",
"$ 	c #B1C377",
"% 	c #A6B285",
"& 	c #9D9E98",
"* 	c #9893A0",
"= 	c #9892A0",
"- 	c #9E9E98",
"; 	c #A8B385",
"> 	c #B3C377",
", 	c #949E84",
"' 	c #9E9F97",
") 	c #C6C4AC",
"! 	c #D9D7B5",
"~ 	c #D9D7B6",
"{ 	c #A4C263",
"] 	c #B2C377",
"^ 	c #B4ACA7",
"/ 	c #DDD2B4",
"( 	c #F0E4BB",
"_ 	c #F1E5BB",
": 	c #F2E9BD",
"< 	c #F2EEBF",
"[ 	c #D8D6B5",
"} 	c #96919F",
"| 	c #75758C",
"1 	c #85977A",
"2 	c #E7CDB3",
"3 	c #ECC8B2",
"4 	c #EFD6B6",
"5 	c #615990",
"6 	c #ACBB79",
"7 	c #E8B3AC",
"8 	c #E0DEB8",
"9 	c #B6B3A9",
"0 	c #ABBB79",
"a 	c #7F828A",
"b 	c #EBC7B1",
"c 	c #EDEBBD",
"d 	c #E0DFB8",
"e 	c #F1E8BC",
"f 	c #EED5B6",
"g 	c #EDD4B5",
"h 	c #F3F2C0",
"i 	c #F4F3C0",
"j 	c #F5F4C1",
"k 	c #ACBC79",
"l 	c #80848A",
"m 	c #F4F3C1",
"n 	c #F3F3C0",
"o 	c #BCCF73",
"p 	c #B2C278",
"q 	c #9BA680",
"r 	c #77778C",
"s 	c #76768C",
"t 	c #76758B",
"u 	c #665D90",
"v 	c #959E84",
"w 	c #77778B",
"x 	c #665E90",
"y 	c #ECEBBD",
"z 	c #DFDDB8",
"A 	c #B6B2A9",
"B 	c #8B849C",
"C 	c #6E6395",
"D 	c #ADBC7A",
"E 	c #B5B2A9",
"F 	c #EDECBE",
"G 	c #E1DFB9",
"H 	c #C1BEAD",
"I 	c #8A849C",
"J 	c #DFDEB8",
"K 	c #645C91",
"L 	c #F4F1C1",
"M 	c #F4EEC1",
"N 	c #F4ECC2",
"O 	c #F3EDC1",
"P 	c #F3E4C3",
"Q 	c #F3DFC4",
"R 	c #F3E5C3",
"S 	c #9E9F96",
"T 	c #C6C4AB",
"U 	c #D8D7B6",
"V 	c #DAD8B9",
"W 	c #DAD3BB",
"X 	c #DBC9BD",
"Y 	c #DBC3BE",
"Z 	c #DBD4BC",
"` 	c #DBD9BB",
" .	c #DBDABB",
"..	c #DBD9BA",
"+.	c #D8D7B7",
"@.	c #C5C4AC",
"#.	c #9D9E97",
"$.	c #A7B385",
"%.	c #9B96A4",
"&.	c #A09BAC",
"*.	c #A39CB0",
"=.	c #A396B1",
"-.	c #A392B2",
";.	c #A39FB0",
">.	c #9B95A4",
",.	c #E8EEAA",
"'.	c #A5B089",
").	c #96959F",
"!.	c #948CAC",
"~.	c #9E98AF",
"{.	c #9993AE",
"].	c #837BAB",
"^.	c #746AAA",
"/.	c #736AAA",
"(.	c #746BAA",
"_.	c #766DAA",
":.	c #7F76A3",
"<.	c #8D8395",
"[.	c #A0A185",
"}.	c #B6C477",
"|.	c #B2C376",
"1.	c #9695A0",
"2.	c #B6AFBF",
"3.	c #CBC5C9",
"4.	c #D5D2C0",
"5.	c #C6C3B6",
"6.	c #9893AE",
"7.	c #7269AA",
"8.	c #948BA0",
"9.	c #BDB48C",
"0.	c #CCCB7B",
"a.	c #C6D273",
"b.	c #8D83AB",
"c.	c #C5BDCE",
"d.	c #E4DED7",
"e.	c #EFECC9",
"f.	c #E2E0BC",
"g.	c #BDBAB4",
"h.	c #A29DB0",
"i.	c #A49FB0",
"j.	c #9691AD",
"k.	c #8078A7",
"l.	c #9E959A",
"m.	c #D3CA85",
"n.	c #E0DE76",
"o.	c #CDD872",
"p.	c #EFEDC9",
"q.	c #EEEDBF",
"r.	c #E2E1BC",
"s.	c #DCDABB",
"t.	c #C4C1B3",
"u.	c #908AA2",
"v.	c #988F91",
"w.	c #D1C981",
"x.	c #E1DE76",
"y.	c #CDD972",
"z.	c #95949F",
"A.	c #B6AFC0",
"B.	c #D2CDCA",
"C.	c #E9E7C4",
"D.	c #F4F4C0",
"E.	c #D8D6B6",
"F.	c #8E878C",
"G.	c #C7C37D",
"H.	c #D8DB74",
"I.	c #CAD871",
"J.	c #A4AF89",
"K.	c #AFAAB0",
"L.	c #DEDCBB",
"M.	c #85858B",
"N.	c #B6BE7B",
"O.	c #C9D772",
"P.	c #C4D670",
"Q.	c #BCCF71",
"R.	c #A6B184",
"S.	c #A7B284",
"T.	c #B7B0BF",
"U.	c #C6BECE",
"                      . + @ @ @ @ + .                           ",
"                  # $ % & * * * = - ; > #                       ",
"                  $ , ' ) ! ~ ~ ! ) ' , $             {   {     ",
"          {   # ] % - ^ / ( _ : < [ } | 1 $ #           {       ",
"        {     $ , & ) / 2 3 3 4 : ~ * 5 | , >                   ",
"        {     6 + * [ ( 3 7 7 3 ( 8 9 = } - ; ] #               ",
"              0 a * [ _ 3 7 7 b ( c d ~ [ ) - , $               ",
"              6 + * [ e f b b g e h h i h [ = + 6               ",
"      {       6 + = [ < : ( ( e < h i j i [ = a 0               ",
"    {         k l = [ h i h h h h h h i h [ = l k               ",
"    {         6 + = [ h m n n h h h h i h [ = + 6               ",
"          o p q r = [ h i h h h h h i j h [ } s q ] #           ",
"          > , t u = [ h i h h h h h h i h [ = u t , >           ",
"          > v w x = [ h i h h h h y z 8 y 8 A B C + D     {   { ",
"          o p q r = [ h i h h i h z E A z F G H I a 6       {   ",
"          o p q r = [ h i h h i h J E E z i i [ = + 6           ",
"          > v w x = [ h i h h h h y z z y m i ! * + 6           ",
"          > , | K = ~ i j L M N N M L i i j i [ = a 0           ",
"          o p q r = [ h i O P Q Q R M i h i h [ = + 6           ",
"              $ v S T U V W X Y Y X Z `  ...+.@.#., $           ",
"              # > $.- %.&.*.=.-.-.=.*.;.;.&.>.- $.] #           ",
",.            # ] '.).!.~.{.].^./.^.^.(._.:.<.[.}.            ,.",
"              |.v 1.2.3.4.5.6.(.7.(.(.7.^.8.9.0.a.              ",
"              6 a b.c.d.e.f.g.;.h.i.;.j.k.l.m.n.o.              ",
"              6 a b.c.d.p.q.r.` ` s.` t.u.v.w.x.y.              ",
"      ,.      |., z.A.B.C.i i h h D.i E.= F.G.H.I.              ",
"        ,.    # ] J.).K.L.h i i i j i [ = M.N.O.P.              ",
"        ,.        $ , #.) L.C.e.e.C.L.) #., $                   ",
"        ,.        Q.|.R.#.K.B.d.d.B.K.- S.] #                   ",
"                      |., ).T.U.U.T.)., |.                      ",
"                      Q.$ J.z.b.b.z.J.$ Q.                      ",
"                          . + @ @ + .                           "};
